<svg width="128" height="128" viewBox="0 0 128 128" fill="none" xmlns="http://www.w3.org/2000/svg">
<g clip-path="url(#clip0_934_13459)">
<path opacity="0.66" d="M102.897 17.3281H8.88862C7.46694 17.3281 6.31445 18.4806 6.31445 19.9023V92.3264C6.31445 93.748 7.46694 94.9005 8.88862 94.9005H102.897C104.319 94.9005 105.471 93.748 105.471 92.3264V19.9023C105.471 18.4806 104.319 17.3281 102.897 17.3281Z" fill="url(#paint0_linear_934_13459)" stroke="#062D61" stroke-width="0.32177" stroke-miterlimit="10"/>
<g opacity="0.66">
<path d="M6.31445 28.5924V20.2392C6.31445 18.6175 7.62728 17.3047 9.249 17.3047H102.55C104.158 17.3047 105.471 18.6175 105.471 20.2264V28.5924" fill="url(#paint1_linear_934_13459)"/>
<path d="M6.31445 28.5924V20.2392C6.31445 18.6175 7.62728 17.3047 9.249 17.3047H102.55C104.158 17.3047 105.471 18.6175 105.471 20.2264V28.5924" stroke="#062D61" stroke-width="0.32177" stroke-miterlimit="10"/>
</g>
<path d="M6.31445 28.5924V20.2392C6.31445 18.6175 7.62728 17.3047 9.249 17.3047H102.55C104.158 17.3047 105.471 18.6175 105.471 20.2264V28.5924" fill="url(#paint2_linear_934_13459)"/>
<path opacity="0.2" d="M94.3644 38.7031H20.2028C17.4092 38.7031 15.1445 40.9678 15.1445 43.7614V43.7742C15.1445 46.5678 17.4092 48.8325 20.2028 48.8325H94.3644C97.158 48.8325 99.4226 46.5678 99.4226 43.7742V43.7614C99.4226 40.9678 97.158 38.7031 94.3644 38.7031Z" fill="white"/>
<path d="M12.7119 25.5214C14.0554 25.5214 15.1445 24.4323 15.1445 23.0888C15.1445 21.7454 14.0554 20.6562 12.7119 20.6562C11.3684 20.6562 10.2793 21.7454 10.2793 23.0888C10.2793 24.4323 11.3684 25.5214 12.7119 25.5214Z" fill="#FFB426"/>
<path d="M19.122 25.5214C20.4655 25.5214 21.5546 24.4323 21.5546 23.0888C21.5546 21.7454 20.4655 20.6562 19.122 20.6562C17.7786 20.6562 16.6895 21.7454 16.6895 23.0888C16.6895 24.4323 17.7786 25.5214 19.122 25.5214Z" fill="white"/>
<path d="M25.8154 25.5214C27.1589 25.5214 28.248 24.4323 28.248 23.0888C28.248 21.7454 27.1589 20.6562 25.8154 20.6562C24.4719 20.6562 23.3828 21.7454 23.3828 23.0888C23.3828 24.4323 24.4719 25.5214 25.8154 25.5214Z" fill="#0F71EF"/>
<path opacity="0.2" d="M50.178 53.7109H17.4218C16.0001 53.7109 14.8477 54.8634 14.8477 56.2851V85.9008C14.8477 87.3225 16.0001 88.475 17.4218 88.475H50.178C51.5997 88.475 52.7522 87.3225 52.7522 85.9008V56.2851C52.7522 54.8634 51.5997 53.7109 50.178 53.7109Z" fill="white"/>
<path opacity="0.2" d="M96.848 53.7109H64.0917C62.6701 53.7109 61.5176 54.8634 61.5176 56.2851V85.9008C61.5176 87.3225 62.6701 88.475 64.0917 88.475H96.848C98.2696 88.475 99.4221 87.3225 99.4221 85.9008V56.2851C99.4221 54.8634 98.2696 53.7109 96.848 53.7109Z" fill="white"/>
<path d="M94.6313 110.609L122.116 83.1238C123.056 82.1838 123.056 80.6599 122.116 79.72L94.6313 52.2348C93.6914 51.2949 92.1675 51.2949 91.2275 52.2348L63.7424 79.72C62.8025 80.6599 62.8025 82.1838 63.7424 83.1238L91.2275 110.609C92.1675 111.549 93.6914 111.549 94.6313 110.609Z" fill="url(#paint3_linear_934_13459)"/>
<path d="M90.208 98.6798C89.4486 97.9461 89.0625 97.058 89.0625 95.9898C89.0625 94.9215 89.4486 94.0334 90.208 93.2998C90.9674 92.5661 91.8941 92.2058 92.9881 92.2058C94.0821 92.2058 95.0088 92.5661 95.7682 93.2998C96.5276 94.0334 96.9137 94.9215 96.9137 95.9898C96.9137 97.058 96.5276 97.9461 95.7682 98.6798C95.0088 99.4134 94.0821 99.7738 92.9881 99.7738C91.8941 99.7738 90.9674 99.4134 90.208 98.6798ZM89.3714 64.7266H96.5919L96.0127 87.8039H89.9377L89.3585 64.7266H89.3714Z" fill="white"/>
<path d="M113.291 44.826L108.829 49.2884C107.819 50.2984 107.819 51.936 108.829 52.946L113.291 57.4083C114.301 58.4184 115.939 58.4184 116.949 57.4083L121.411 52.946C122.421 51.936 122.421 50.2984 121.411 49.2884L116.949 44.826C115.939 43.816 114.301 43.816 113.291 44.826Z" fill="#FF3B30"/>
</g>
<defs>
<linearGradient id="paint0_linear_934_13459" x1="6.31445" y1="56.1079" x2="105.484" y2="56.1079" gradientUnits="userSpaceOnUse">
<stop offset="0.5" stop-color="#0F71EF"/>
<stop offset="0.55" stop-color="#1474EF"/>
<stop offset="0.62" stop-color="#257EF0"/>
<stop offset="0.69" stop-color="#418EF2"/>
<stop offset="0.77" stop-color="#68A5F4"/>
<stop offset="0.86" stop-color="#9AC3F8"/>
<stop offset="0.94" stop-color="#D5E6FC"/>
<stop offset="1" stop-color="white"/>
</linearGradient>
<linearGradient id="paint1_linear_934_13459" x1="6.16" y1="22.955" x2="7.44708" y2="22.955" gradientUnits="userSpaceOnUse">
<stop offset="0.5" stop-color="#0F71EF"/>
<stop offset="0.55" stop-color="#1474EF"/>
<stop offset="0.62" stop-color="#257EF0"/>
<stop offset="0.69" stop-color="#418EF2"/>
<stop offset="0.77" stop-color="#68A5F4"/>
<stop offset="0.86" stop-color="#9AC3F8"/>
<stop offset="0.94" stop-color="#D5E6FC"/>
<stop offset="1" stop-color="white"/>
</linearGradient>
<linearGradient id="paint2_linear_934_13459" x1="6.31445" y1="22.955" x2="105.484" y2="22.955" gradientUnits="userSpaceOnUse">
<stop stop-color="#0C5ABF"/>
<stop offset="0.27" stop-color="#0C5DC7"/>
<stop offset="0.68" stop-color="#0D68DD"/>
<stop offset="0.94" stop-color="#0F71EF"/>
</linearGradient>
<linearGradient id="paint3_linear_934_13459" x1="92.932" y1="51.5238" x2="92.932" y2="111.309" gradientUnits="userSpaceOnUse">
<stop stop-color="#FF3B30"/>
<stop offset="0.38" stop-color="#FE3C31"/>
<stop offset="0.51" stop-color="#FE4238"/>
<stop offset="0.61" stop-color="#FD4D44"/>
<stop offset="0.69" stop-color="#FB5C55"/>
<stop offset="0.76" stop-color="#F9706B"/>
<stop offset="0.82" stop-color="#F78986"/>
<stop offset="0.87" stop-color="#F4A6A7"/>
<stop offset="0.92" stop-color="#F1C8CC"/>
<stop offset="0.96" stop-color="#EDEDF5"/>
<stop offset="0.97" stop-color="#EDF2FB"/>
</linearGradient>
<clipPath id="clip0_934_13459">
<rect width="116.648" height="94.15" fill="white" transform="translate(6.16016 17.1562)"/>
</clipPath>
</defs>
</svg>
