<svg width="20" height="21" viewBox="0 0 20 21" fill="none" xmlns="http://www.w3.org/2000/svg">
<g clip-path="url(#clip0_8803_1254)">
<path d="M18.9717 4.305C18.6672 4.17816 18.3318 4.14481 18.0083 4.20922C17.6847 4.27363 17.3877 4.43287 17.155 4.66667L15 6.82167L11.1783 3C10.8658 2.68755 10.4419 2.51202 10 2.51202C9.55806 2.51202 9.13421 2.68755 8.82167 3L5 6.82167L2.845 4.66667C2.61191 4.43365 2.31497 4.27497 1.99172 4.2107C1.66846 4.14642 1.33341 4.17942 1.02891 4.30554C0.724409 4.43165 0.464138 4.64522 0.280997 4.91924C0.0978568 5.19325 7.03739e-05 5.51542 0 5.845L0 14.6667C0.00132321 15.7713 0.440735 16.8304 1.22185 17.6115C2.00296 18.3926 3.062 18.832 4.16667 18.8333H15.8333C16.938 18.832 17.997 18.3926 18.7782 17.6115C19.5593 16.8304 19.9987 15.7713 20 14.6667V5.845C20.0001 5.51539 19.9024 5.19316 19.7194 4.91904C19.5364 4.64493 19.2761 4.43124 18.9717 4.305Z" fill="#FFC226"/>
</g>
<defs>
<clipPath id="clip0_8803_1254">
<rect width="20" height="20" fill="white" transform="translate(0 0.5)"/>
</clipPath>
</defs>
</svg>
