<svg width="140" height="20" viewBox="0 0 140 20" fill="none" xmlns="http://www.w3.org/2000/svg">
<path d="M15.6563 3.51908L7.83541 0L0.485196 3.51908C0.217201 3.51908 0 3.731 0 3.99248V11.2427C0 13.7948 1.42109 16.1488 3.70872 17.3862L7.83541 19.6183C7.90857 19.6579 7.98969 19.6777 8.07068 19.6777C8.15167 19.6777 8.23279 19.6579 8.30595 19.6183L12.4326 17.3862C14.7203 16.1488 16.1414 13.7948 16.1414 11.2427V3.99248C16.1415 3.731 15.9242 3.51908 15.6563 3.51908Z" fill="#0F71F2"/>
<path fill-rule="evenodd" clip-rule="evenodd" d="M8.25424 3.69505C7.91312 3.69505 7.63659 3.97187 7.63659 4.31336V5.85654C6.08303 6.14422 4.90049 7.49711 4.90049 9.13203C4.90049 10.9777 6.4075 12.464 8.25424 12.464C10.101 12.464 11.608 10.9777 11.608 9.13203C11.608 8.19819 11.2206 7.35414 10.6 6.75066C10.3553 6.51273 9.96423 6.51842 9.72655 6.76338C9.48888 7.00833 9.49457 7.39978 9.73925 7.63771C10.1316 8.01921 10.3727 8.54769 10.3727 9.13203C10.3727 10.2839 9.42958 11.2274 8.25424 11.2274C7.0789 11.2274 6.1358 10.2839 6.1358 9.13203C6.1358 7.98014 7.0789 7.03669 8.25424 7.03669H8.87189V4.97516C10.9857 5.27537 12.6113 7.09443 12.6113 9.29342C12.6113 11.7023 10.6606 13.6552 8.25423 13.6552C5.84789 13.6552 3.89717 11.7023 3.89717 9.29342C3.89717 8.95194 3.62064 8.67511 3.27952 8.67511C2.9384 8.67511 2.66187 8.95194 2.66187 9.29342C2.66187 12.3853 5.16565 14.8918 8.25423 14.8918C11.3428 14.8918 13.8466 12.3853 13.8466 9.29342C13.8466 6.2032 11.3455 3.69777 8.25922 3.69507L8.25424 3.69505ZM8.25424 7.95478C7.79995 7.95478 7.43167 8.32345 7.43167 8.77823C7.43167 9.07858 7.59231 9.34115 7.83183 9.48492V10.4031H8.67644V9.48504C8.91608 9.3413 9.07681 9.07867 9.07681 8.77823C9.07681 8.32345 8.70853 7.95478 8.25424 7.95478Z" fill="white"/>
<path d="M27.5435 5.09736C30.6864 5.09736 33.1468 7.5736 33.1468 10.6689C33.1468 13.7642 30.6864 16.2087 27.5435 16.2087C24.4006 16.2087 21.9402 13.7642 21.9402 10.6689C21.9402 7.5736 24.4006 5.09736 27.5435 5.09736ZM27.5435 14.1769C29.4642 14.1769 30.9721 12.7007 30.9721 10.6689C30.9721 8.63712 29.4642 7.12915 27.5435 7.12915C25.6228 7.12915 24.1148 8.63712 24.1148 10.6689C24.1148 12.7007 25.6228 14.1769 27.5435 14.1769Z" fill="#05153F"/>
<path d="M39.4823 7.8117C41.3871 7.8117 42.657 9.17681 42.657 11.1451V15.9706H40.5617V11.5896C40.5617 10.4784 39.9268 9.73238 38.9585 9.73238C37.768 9.73238 36.9902 10.526 36.9902 12.4626V15.9706H34.8949V8.0498H36.9902V8.7641C37.6093 8.14504 38.4347 7.8117 39.4823 7.8117Z" fill="#05153F"/>
<path d="M46.7716 15.9706H44.6763V4.54179H46.7716V15.9706Z" fill="#05153F"/>
<path d="M50.1599 4.43068C50.8901 4.43068 51.4298 5.01799 51.4298 5.68467C51.4298 6.3831 50.8901 6.90692 50.1599 6.90692C49.4138 6.90692 48.89 6.3831 48.89 5.68467C48.89 5.01799 49.4138 4.43068 50.1599 4.43068ZM51.2075 15.9706H49.1123V8.0498H51.2075V15.9706Z" fill="#05153F"/>
<path d="M58.1304 7.8117C60.0352 7.8117 61.3051 9.17681 61.3051 11.1451V15.9706H59.2098V11.5896C59.2098 10.4784 58.5749 9.73238 57.6066 9.73238C56.4161 9.73238 55.6383 10.526 55.6383 12.4626V15.9706H53.543V8.0498H55.6383V8.7641C56.2574 8.14504 57.0828 7.8117 58.1304 7.8117Z" fill="#05153F"/>
<path d="M70.8007 11.8594V12.5737H64.7688C64.9752 13.7166 65.7847 14.415 66.753 14.415C67.3721 14.415 68.1498 14.3356 68.7213 13.3674L70.5943 13.7642C69.8959 15.415 68.4832 16.2087 66.753 16.2087C64.5149 16.2087 62.6894 14.5103 62.6894 12.0181C62.6894 9.52602 64.5149 7.8117 66.7847 7.8117C68.8959 7.8117 70.7213 9.44666 70.8007 11.8594ZM66.7847 9.63714C65.9911 9.63714 65.0863 10.1133 64.8323 11.0975H68.6578C68.388 10.0816 67.626 9.63714 66.7847 9.63714Z" fill="#05153F"/>
<path d="M80.2174 5.12911C82.3445 5.12911 83.8366 6.30373 84.2016 8.0498L82.9477 8.33552C82.7096 7.04978 81.646 6.22437 80.1857 6.22437C78.7571 6.22437 77.7729 7.00216 77.7729 8.14504C77.7729 9.09744 78.3761 9.52602 79.3762 9.73238L81.6937 10.2562C83.1699 10.5737 84.3763 11.3197 84.3763 13.0182C84.3763 14.9547 82.8048 16.177 80.4238 16.177C78.1698 16.177 76.3602 15.0182 76.1062 13.0023L77.4237 12.7324C77.6618 14.2245 78.8841 15.0658 80.5349 15.0658C82.154 15.0658 83.1223 14.2563 83.1223 13.0817C83.1223 12.0816 82.5826 11.6848 81.3921 11.415L78.9952 10.8911C77.6301 10.5895 76.4396 9.87524 76.4396 8.17679C76.4396 6.35135 77.9476 5.12911 80.2174 5.12911Z" fill="#05153F"/>
<path d="M93.8043 11.8594V12.3039H87.0899C87.201 14.0658 88.5343 15.1134 89.8836 15.1134C90.9947 15.1134 91.9947 14.6849 92.5503 13.4309L93.6297 13.6848C93.0106 15.3198 91.6455 16.177 89.8836 16.177C87.8042 16.177 85.9152 14.5737 85.9152 12.0816C85.9152 9.57364 87.8041 7.95456 89.9629 7.95456C92.0741 7.95456 93.7249 9.52602 93.8043 11.8594ZM89.9629 9.01808C88.6931 9.01808 87.3756 9.85936 87.1375 11.3991H92.582C92.3598 9.85936 91.2645 9.01808 89.9629 9.01808Z" fill="#05153F"/>
<path d="M99.249 15.0499C100.408 15.0499 101.455 14.4626 101.836 13.288L102.947 13.5896C102.519 15.1928 100.979 16.177 99.249 16.177C97.0426 16.177 95.1695 14.5579 95.1695 12.0658C95.1695 9.60539 97.0426 7.95456 99.249 7.95456C100.963 7.95456 102.487 8.95458 102.963 10.5578L101.805 10.907C101.455 9.70063 100.408 9.0657 99.249 9.0657C97.6458 9.0657 96.3441 10.2721 96.3441 12.0658C96.3441 13.8912 97.6458 15.0499 99.249 15.0499Z" fill="#05153F"/>
<path d="M112.157 8.14504V15.9547H110.934V14.6849C110.3 15.6214 109.284 16.1611 107.982 16.1611C106.093 16.1611 104.839 14.8118 104.839 12.8277V8.14504H106.061V12.6055C106.061 14.0658 106.919 15.0341 108.22 15.0341C109.855 15.0341 110.934 13.9388 110.934 11.907V8.14504H112.157Z" fill="#05153F"/>
<path d="M119.3 8.06568C119.491 8.06568 119.633 8.06568 119.856 8.12917L119.76 9.28792C119.618 9.27205 119.443 9.27205 119.3 9.27205C117.221 9.27205 116.157 10.8435 116.157 12.9547V15.9706H114.935V8.14504H116.157V10.0657C116.792 8.90696 117.856 8.06568 119.3 8.06568Z" fill="#05153F"/>
<path d="M122.207 4.97037C122.683 4.97037 123.048 5.35133 123.048 5.77991C123.048 6.24024 122.683 6.58945 122.207 6.58945C121.73 6.58945 121.381 6.24024 121.381 5.77991C121.381 5.35133 121.73 4.97037 122.207 4.97037ZM122.826 15.9706H121.603V8.14504H122.826V15.9706Z" fill="#05153F"/>
<path d="M130.041 14.5579L130.438 15.5579C129.803 16.0023 129.263 16.177 128.628 16.177C127.073 16.177 126.041 15.2563 126.041 13.5261V9.16094H124.342V8.14504H126.041V5.65293H127.263V8.14504H130.057V9.16094H127.263V13.4467C127.263 14.4626 127.835 15.0341 128.708 15.0341C129.152 15.0341 129.644 14.8436 130.041 14.5579Z" fill="#05153F"/>
<path d="M139.24 8.14504L134.447 18.6691H133.097L134.383 15.8595L130.875 8.14504H132.24L135.034 14.3991L137.891 8.14504H139.24Z" fill="#05153F"/>
</svg>
