<svg width="140" height="21" viewBox="0 0 140 21" fill="none" xmlns="http://www.w3.org/2000/svg">
<path d="M15.6563 3.98989L7.83541 0.470802L0.485196 3.98989C0.217201 3.98989 0 4.2018 0 4.46328V11.7135C0 14.2656 1.42109 16.6196 3.70872 17.857L7.83541 20.0891C7.90857 20.1287 7.98969 20.1485 8.07068 20.1485C8.15167 20.1485 8.23279 20.1287 8.30595 20.0891L12.4326 17.857C14.7203 16.6196 16.1414 14.2656 16.1414 11.7135V4.46328C16.1415 4.2018 15.9242 3.98989 15.6563 3.98989Z" fill="#0F71F2"/>
<path fill-rule="evenodd" clip-rule="evenodd" d="M8.25424 4.16585C7.91312 4.16585 7.63659 4.44268 7.63659 4.78416V6.32734C6.08303 6.61503 4.90049 7.96791 4.90049 9.60283C4.90049 11.4485 6.4075 12.9348 8.25424 12.9348C10.101 12.9348 11.608 11.4485 11.608 9.60283C11.608 8.66899 11.2206 7.82494 10.6 7.22146C10.3553 6.98353 9.96423 6.98923 9.72655 7.23418C9.48888 7.47913 9.49457 7.87058 9.73925 8.10851C10.1316 8.49001 10.3727 9.0185 10.3727 9.60283C10.3727 10.7547 9.42958 11.6982 8.25424 11.6982C7.0789 11.6982 6.1358 10.7547 6.1358 9.60283C6.1358 8.45094 7.0789 7.50749 8.25424 7.50749H8.87189V5.44596C10.9857 5.74617 12.6113 7.56524 12.6113 9.76422C12.6113 12.1731 10.6606 14.126 8.25423 14.126C5.84789 14.126 3.89717 12.1731 3.89717 9.76422C3.89717 9.42274 3.62064 9.14591 3.27952 9.14591C2.9384 9.14591 2.66187 9.42274 2.66187 9.76422C2.66187 12.8561 5.16565 15.3626 8.25423 15.3626C11.3428 15.3626 13.8466 12.8561 13.8466 9.76422C13.8466 6.674 11.3455 4.16857 8.25922 4.16587L8.25424 4.16585ZM8.25424 8.42558C7.79995 8.42558 7.43167 8.79425 7.43167 9.24903C7.43167 9.54939 7.59231 9.81195 7.83183 9.95572V10.8739H8.67644V9.95585C8.91608 9.8121 9.07681 9.54947 9.07681 9.24903C9.07681 8.79425 8.70853 8.42558 8.25424 8.42558Z" fill="white"/>
<path d="M27.5435 5.56816C30.6864 5.56816 33.1468 8.0444 33.1468 11.1397C33.1468 14.235 30.6864 16.6795 27.5435 16.6795C24.4006 16.6795 21.9402 14.235 21.9402 11.1397C21.9402 8.0444 24.4006 5.56816 27.5435 5.56816ZM27.5435 14.6477C29.4642 14.6477 30.9721 13.1715 30.9721 11.1397C30.9721 9.10792 29.4642 7.59995 27.5435 7.59995C25.6228 7.59995 24.1148 9.10792 24.1148 11.1397C24.1148 13.1715 25.6228 14.6477 27.5435 14.6477Z" fill="white"/>
<path d="M39.4823 8.2825C41.3871 8.2825 42.657 9.64761 42.657 11.6159V16.4414H40.5617V12.0604C40.5617 10.9492 39.9268 10.2032 38.9585 10.2032C37.768 10.2032 36.9902 10.9968 36.9902 12.9334V16.4414H34.8949V8.5206H36.9902V9.2349C37.6093 8.61584 38.4347 8.2825 39.4823 8.2825Z" fill="white"/>
<path d="M46.7716 16.4414H44.6763V5.0126H46.7716V16.4414Z" fill="white"/>
<path d="M50.1599 4.90148C50.8901 4.90148 51.4298 5.4888 51.4298 6.15548C51.4298 6.8539 50.8901 7.37772 50.1599 7.37772C49.4138 7.37772 48.89 6.8539 48.89 6.15548C48.89 5.4888 49.4138 4.90148 50.1599 4.90148ZM51.2075 16.4414H49.1123V8.5206H51.2075V16.4414Z" fill="white"/>
<path d="M58.1304 8.2825C60.0352 8.2825 61.3051 9.64761 61.3051 11.6159V16.4414H59.2098V12.0604C59.2098 10.9492 58.5749 10.2032 57.6066 10.2032C56.4161 10.2032 55.6383 10.9968 55.6383 12.9334V16.4414H53.543V8.5206H55.6383V9.2349C56.2574 8.61584 57.0828 8.2825 58.1304 8.2825Z" fill="white"/>
<path d="M70.8007 12.3302V13.0445H64.7688C64.9752 14.1874 65.7847 14.8858 66.753 14.8858C67.3721 14.8858 68.1498 14.8064 68.7213 13.8382L70.5943 14.235C69.8959 15.8858 68.4832 16.6795 66.753 16.6795C64.5149 16.6795 62.6894 14.9811 62.6894 12.4889C62.6894 9.99683 64.5149 8.2825 66.7847 8.2825C68.8959 8.2825 70.7213 9.91746 70.8007 12.3302ZM66.7847 10.1079C65.9911 10.1079 65.0863 10.5841 64.8323 11.5683H68.6578C68.388 10.5524 67.626 10.1079 66.7847 10.1079Z" fill="white"/>
<path d="M80.2174 5.59991C82.3445 5.59991 83.8366 6.77454 84.2016 8.5206L82.9477 8.80632C82.7096 7.52058 81.646 6.69517 80.1857 6.69517C78.7571 6.69517 77.7729 7.47296 77.7729 8.61584C77.7729 9.56824 78.3761 9.99682 79.3762 10.2032L81.6937 10.727C83.1699 11.0445 84.3763 11.7905 84.3763 13.489C84.3763 15.4255 82.8048 16.6478 80.4238 16.6478C78.1698 16.6478 76.3602 15.489 76.1062 13.4731L77.4237 13.2032C77.6618 14.6953 78.8841 15.5366 80.5349 15.5366C82.154 15.5366 83.1223 14.7271 83.1223 13.5525C83.1223 12.5524 82.5826 12.1556 81.3921 11.8858L78.9952 11.3619C77.6301 11.0603 76.4396 10.346 76.4396 8.64759C76.4396 6.82216 77.9476 5.59991 80.2174 5.59991Z" fill="white"/>
<path d="M93.8043 12.3302V12.7747H87.0899C87.201 14.5366 88.5343 15.5842 89.8836 15.5842C90.9947 15.5842 91.9947 15.1557 92.5503 13.9017L93.6297 14.1556C93.0106 15.7906 91.6455 16.6478 89.8836 16.6478C87.8042 16.6478 85.9152 15.0445 85.9152 12.5524C85.9152 10.0444 87.8041 8.42536 89.9629 8.42536C92.0741 8.42536 93.7249 9.99683 93.8043 12.3302ZM89.9629 9.48888C88.6931 9.48888 87.3756 10.3302 87.1375 11.8699H92.582C92.3598 10.3302 91.2645 9.48888 89.9629 9.48888Z" fill="white"/>
<path d="M99.249 15.5207C100.408 15.5207 101.455 14.9334 101.836 13.7588L102.947 14.0604C102.519 15.6636 100.979 16.6478 99.249 16.6478C97.0426 16.6478 95.1695 15.0287 95.1695 12.5366C95.1695 10.0762 97.0426 8.42536 99.249 8.42536C100.963 8.42536 102.487 9.42538 102.963 11.0286L101.805 11.3778C101.455 10.1714 100.408 9.5365 99.249 9.5365C97.6458 9.5365 96.3441 10.7429 96.3441 12.5366C96.3441 14.362 97.6458 15.5207 99.249 15.5207Z" fill="white"/>
<path d="M112.157 8.61584V16.4255H110.934V15.1557C110.3 16.0922 109.284 16.6319 107.982 16.6319C106.093 16.6319 104.839 15.2826 104.839 13.2985V8.61584H106.061V13.0763C106.061 14.5366 106.919 15.5049 108.22 15.5049C109.855 15.5049 110.934 14.4096 110.934 12.3778V8.61584H112.157Z" fill="white"/>
<path d="M119.3 8.53648C119.491 8.53648 119.633 8.53648 119.856 8.59997L119.76 9.75872C119.618 9.74285 119.443 9.74285 119.3 9.74285C117.221 9.74285 116.157 11.3143 116.157 13.4255V16.4414H114.935V8.61584H116.157V10.5365C116.792 9.37776 117.856 8.53648 119.3 8.53648Z" fill="white"/>
<path d="M122.207 5.44118C122.683 5.44118 123.048 5.82214 123.048 6.25072C123.048 6.71104 122.683 7.06026 122.207 7.06026C121.73 7.06026 121.381 6.71104 121.381 6.25072C121.381 5.82214 121.73 5.44118 122.207 5.44118ZM122.826 16.4414H121.603V8.61584H122.826V16.4414Z" fill="white"/>
<path d="M130.041 15.0287L130.438 16.0287C129.803 16.4731 129.263 16.6478 128.628 16.6478C127.073 16.6478 126.041 15.7271 126.041 13.9969V9.63174H124.342V8.61584H126.041V6.12373H127.263V8.61584H130.057V9.63174H127.263V13.9175C127.263 14.9334 127.835 15.5049 128.708 15.5049C129.152 15.5049 129.644 15.3144 130.041 15.0287Z" fill="white"/>
<path d="M139.24 8.61584L134.447 19.1399H133.097L134.383 16.3303L130.875 8.61584H132.24L135.034 14.8699L137.891 8.61584H139.24Z" fill="white"/>
</svg>
