<svg width="151" height="22" viewBox="0 0 151 22" fill="none" xmlns="http://www.w3.org/2000/svg">
<path d="M16.9786 3.93439L8.49718 0L0.526175 3.93439C0.235545 3.93439 0 4.17132 0 4.46365V12.5696C0 15.4228 1.54112 18.0546 4.02195 19.438L8.49718 21.9336C8.57651 21.9778 8.66448 22 8.75232 22C8.84015 22 8.92812 21.9778 9.00746 21.9336L13.4827 19.438C15.9635 18.0546 17.5046 15.4228 17.5046 12.5696V4.46365C17.5048 4.17132 17.2691 3.93439 16.9786 3.93439Z" fill="#0F71F2"/>
<path fill-rule="evenodd" clip-rule="evenodd" d="M8.95129 4.13112C8.58136 4.13112 8.28148 4.44062 8.28148 4.8224V6.5477C6.59671 6.86934 5.31429 8.38189 5.31429 10.2097C5.31429 12.2732 6.94859 13.9349 8.95129 13.9349C10.954 13.9349 12.5883 12.2732 12.5883 10.2097C12.5883 9.1657 12.1682 8.22204 11.4951 7.54734C11.2298 7.28134 10.8057 7.2877 10.548 7.56156C10.2902 7.83542 10.2964 8.27307 10.5617 8.53908C10.9872 8.9656 11.2487 9.55646 11.2487 10.2097C11.2487 11.4976 10.2259 12.5524 8.95129 12.5524C7.67669 12.5524 6.65393 11.4976 6.65393 10.2097C6.65393 8.92192 7.67669 7.86713 8.95129 7.86713H9.62111V5.56231C11.9134 5.89795 13.6763 7.93169 13.6763 10.3902C13.6763 13.0834 11.5609 15.2667 8.95129 15.2667C6.34171 15.2667 4.22623 13.0834 4.22623 10.3902C4.22623 10.0084 3.92634 9.69891 3.55641 9.69891C3.18648 9.69891 2.8866 10.0084 2.8866 10.3902C2.8866 13.847 5.60185 16.6492 8.95129 16.6492C12.3007 16.6492 15.016 13.847 15.016 10.3902C15.016 6.93527 12.3036 4.13416 8.9567 4.13115L8.95129 4.13112ZM8.95129 8.89357C8.45863 8.89357 8.05925 9.30575 8.05925 9.81419C8.05925 10.15 8.23345 10.4436 8.49321 10.6043V11.6308H9.40915V10.6044C9.66903 10.4437 9.84333 10.1501 9.84333 9.81419C9.84333 9.30575 9.44395 8.89357 8.95129 8.89357Z" fill="white"/>
<path d="M29.8698 5.69893C33.2782 5.69893 35.9463 8.4674 35.9463 11.928C35.9463 15.3886 33.2782 18.1216 29.8698 18.1216C26.4614 18.1216 23.7933 15.3886 23.7933 11.928C23.7933 8.4674 26.4614 5.69893 29.8698 5.69893ZM29.8698 15.85C31.9527 15.85 33.588 14.1996 33.588 11.928C33.588 9.65643 31.9527 7.9705 29.8698 7.9705C27.7869 7.9705 26.1516 9.65643 26.1516 11.928C26.1516 14.1996 27.7869 15.85 29.8698 15.85Z" fill="#05153F"/>
<path d="M42.817 8.7336C44.8827 8.7336 46.2598 10.2598 46.2598 12.4604V17.8554H43.9876V12.9573C43.9876 11.715 43.299 10.8809 42.2489 10.8809C40.9579 10.8809 40.1144 11.7683 40.1144 13.9334V17.8554H37.8422V8.9998H40.1144V9.7984C40.7858 9.10628 41.6809 8.7336 42.817 8.7336Z" fill="#05153F"/>
<path d="M50.7219 17.8554H48.4496V5.07779H50.7219V17.8554Z" fill="#05153F"/>
<path d="M54.3964 4.95357C55.1882 4.95357 55.7735 5.61019 55.7735 6.35555C55.7735 7.1364 55.1882 7.72204 54.3964 7.72204C53.5873 7.72204 53.0193 7.1364 53.0193 6.35555C53.0193 5.61019 53.5873 4.95357 54.3964 4.95357ZM55.5325 17.8554H53.2603V8.9998H55.5325V17.8554Z" fill="#05153F"/>
<path d="M63.0401 8.7336C65.1058 8.7336 66.4829 10.2598 66.4829 12.4604V17.8554H64.2106V12.9573C64.2106 11.715 63.5221 10.8809 62.472 10.8809C61.181 10.8809 60.3375 11.7683 60.3375 13.9334V17.8554H58.0652V8.9998H60.3375V9.7984C61.0088 9.10628 61.904 8.7336 63.0401 8.7336Z" fill="#05153F"/>
<path d="M76.7805 13.259V14.0576H70.2392C70.4629 15.3354 71.3409 16.1162 72.3909 16.1162C73.0622 16.1162 73.9057 16.0275 74.5254 14.9449L76.5567 15.3886C75.7993 17.2342 74.2672 18.1216 72.3909 18.1216C69.9637 18.1216 67.9841 16.2227 67.9841 13.4365C67.9841 10.6502 69.9637 8.7336 72.4253 8.7336C74.7148 8.7336 76.6944 10.5615 76.7805 13.259ZM72.4253 10.7745C71.5646 10.7745 70.5834 11.3069 70.308 12.4072H74.4566C74.1639 11.2714 73.3377 10.7745 72.4253 10.7745Z" fill="#05153F"/>
<path d="M86.9925 5.73442C89.2992 5.73442 90.9173 7.04767 91.3132 8.9998L89.9533 9.31924C89.6951 7.88176 88.5418 6.95894 86.9581 6.95894C85.4088 6.95894 84.3416 7.82852 84.3416 9.10628C84.3416 10.1711 84.9957 10.6502 86.0802 10.8809L88.5934 11.4666C90.1943 11.8215 91.5026 12.6556 91.5026 14.5545C91.5026 16.7196 89.7984 18.0861 87.2163 18.0861C84.7719 18.0861 82.8095 16.7906 82.5341 14.5368L83.9629 14.2351C84.2211 15.9032 85.5466 16.8438 87.3368 16.8438C89.0926 16.8438 90.1427 15.9387 90.1427 14.6255C90.1427 13.5074 89.5574 13.0638 88.2664 12.7621L85.6671 12.1765C84.1866 11.8393 82.8956 11.0407 82.8956 9.14178C82.8956 7.10091 84.5309 5.73442 86.9925 5.73442Z" fill="#05153F"/>
<path d="M101.727 13.259V13.7559H94.4454C94.5659 15.7258 96.0119 16.8971 97.475 16.8971C98.68 16.8971 99.7645 16.4179 100.367 15.0159L101.538 15.2999C100.866 17.1278 99.3858 18.0861 97.475 18.0861C95.22 18.0861 93.1715 16.2937 93.1715 13.5074C93.1715 10.7035 95.22 8.89332 97.5611 8.89332C99.8506 8.89332 101.641 10.6502 101.727 13.259ZM97.5611 10.0823C96.184 10.0823 94.7552 11.0229 94.497 12.7443H100.401C100.16 11.0229 98.9727 10.0823 97.5611 10.0823Z" fill="#05153F"/>
<path d="M107.631 16.8261C108.888 16.8261 110.024 16.1694 110.437 14.8562L111.642 15.1934C111.178 16.9858 109.508 18.0861 107.631 18.0861C105.239 18.0861 103.207 16.2759 103.207 13.4897C103.207 10.739 105.239 8.89332 107.631 8.89332C109.491 8.89332 111.143 10.0114 111.659 11.8038L110.403 12.1942C110.024 10.8455 108.888 10.1356 107.631 10.1356C105.893 10.1356 104.481 11.4843 104.481 13.4897C104.481 15.5306 105.893 16.8261 107.631 16.8261Z" fill="#05153F"/>
<path d="M121.629 9.10628V17.8376H120.304V16.4179C119.615 17.465 118.514 18.0683 117.102 18.0683C115.054 18.0683 113.694 16.5599 113.694 14.3415V9.10628H115.019V14.0931C115.019 15.7258 115.949 16.8083 117.36 16.8083C119.133 16.8083 120.304 15.5838 120.304 13.3122V9.10628H121.629Z" fill="#05153F"/>
<path d="M129.376 9.01755C129.583 9.01755 129.738 9.01755 129.979 9.08854L129.875 10.384C129.72 10.3663 129.531 10.3663 129.376 10.3663C127.121 10.3663 125.968 12.1232 125.968 14.4835V17.8554H124.642V9.10628H125.968V11.2536C126.656 9.95812 127.81 9.01755 129.376 9.01755Z" fill="#05153F"/>
<path d="M132.528 5.55695C133.045 5.55695 133.44 5.98287 133.44 6.46203C133.44 6.97668 133.045 7.36711 132.528 7.36711C132.012 7.36711 131.633 6.97668 131.633 6.46203C131.633 5.98287 132.012 5.55695 132.528 5.55695ZM133.199 17.8554H131.874V9.10628H133.199V17.8554Z" fill="#05153F"/>
<path d="M141.024 16.2759L141.454 17.394C140.766 17.8909 140.181 18.0861 139.492 18.0861C137.805 18.0861 136.686 17.0568 136.686 15.1224V10.2421H134.844V9.10628H136.686V6.32006H138.012V9.10628H141.041V10.2421H138.012V15.0337C138.012 16.1694 138.631 16.8083 139.578 16.8083C140.06 16.8083 140.594 16.5954 141.024 16.2759Z" fill="#05153F"/>
<path d="M151.001 9.10628L145.802 20.8723H144.339L145.733 17.7311L141.929 9.10628H143.409L146.439 16.0985L149.537 9.10628H151.001Z" fill="#05153F"/>
</svg>
